<?xml version="1.0" encoding="utf-8"?>
<!-- Generator: Adobe Illustrator 27.5.0, SVG Export Plug-In . SVG Version: 6.00 Build 0)  -->
<svg version="1.1" xmlns="http://www.w3.org/2000/svg" xmlns:xlink="http://www.w3.org/1999/xlink" x="0px" y="0px"
	 viewBox="0 0 300 300" style="enable-background:new 0 0 300 300;" xml:space="preserve" width="300" height="300">
<g id="BACKGROUND">
</g>
<g id="OBJECTS">
	<g>
		<path d="M133.781,270.873c-0.642,0.782-1.168,1.388-1.657,2.022c-1.311,1.701-2.912,3.054-4.769,4.13
			c-1.995,1.156-3.995,2.301-6.167,3.094c-0.693,0.253-1.434,0.455-2.166,0.506c-1.239,0.086-1.981-0.66-2.013-1.918
			c-0.011-0.429,0.053-0.875,0.171-1.289c0.492-1.734,1.013-3.461,1.534-5.187c0.159-0.527,0.35-1.045,0.56-1.667
			c-0.735-0.022-1.348-0.072-1.958-0.052c-2.676,0.088-25.35,0.234-28.027,0.29c-6.226,0.129-12.452,0.211-18.678,0.328
			c-2.428,0.046-4.855,0.147-7.283,0.203c-0.683,0.016-1.369-0.016-2.051-0.066c-0.668-0.049-1.173-0.364-1.439-1.016
			c-0.089-0.218-0.187-0.514-0.365-0.599c-0.973-0.465-1.017-1.328-1.036-2.218c-0.004-0.187-0.021-0.374-0.008-0.56
			c0.134-1.931-0.055-3.84-0.253-5.762c-0.254-2.474-0.369-4.967-0.438-7.454c-0.161-5.788-0.254-11.578-0.383-17.367
			c-0.135-6.1-0.281-12.2-0.418-18.3c-0.066-2.926-0.144-5.851-0.182-8.777c-0.136-10.521-0.267-21.043-0.379-31.565
			c-0.052-4.856-0.053-9.713-0.083-14.569c-0.002-0.402-0.056-0.804-0.087-1.233c-0.643,0.119-0.746,0.6-0.987,0.926
			c-1.079,1.465-2.323,2.766-3.791,3.84c-1.769,1.294-3.748,1.947-5.953,1.792c-3.16-0.222-5.278-3.151-4.477-6.211
			c0.453-1.731,1.399-3.179,2.719-4.384c0.538-0.492,1.076-0.984,1.623-1.484c-0.398-0.508-0.862-0.304-1.26-0.31
			c-1.684-0.029-3.362-0.081-4.988-0.599c-0.958-0.305-1.858-0.717-2.639-1.359c-2.377-1.951-2.649-4.918-0.68-7.262
			c1.13-1.345,2.586-2.163,4.279-2.48c1.525-0.286,3.08-0.414,4.624-0.599c0.426-0.051,0.857-0.058,1.272-0.084
			c0.117-0.463-0.228-0.563-0.45-0.755c-1.034-0.893-2.1-1.755-3.078-2.706c-0.48-0.467-0.867-1.068-1.17-1.672
			c-0.84-1.672-0.372-3.371,1.17-4.423c0.844-0.576,1.794-0.867,2.812-0.882c3.266-0.049,6.131,0.906,8.372,3.396
			c0.583,0.648,1.181,1.283,1.783,1.913c0.153,0.16,0.347,0.281,0.661,0.53c0.267-0.835,0.18-1.514,0.178-2.17
			c-0.009-3.611-0.038-7.222-0.07-10.833c-0.068-7.785,0.034-15.567,0.429-23.343c0.322-6.343,0.676-12.684,1.046-19.025
			c0.45-7.711,0.513-15.432,0.681-23.152c0.142-6.535,0.474-13.066,0.723-19.598c0.01-0.249,0.029-0.498,0.06-0.745
			c0.153-1.246,0.246-1.224,1.62-1.537c1.053-0.24,2.081-0.209,3.134-0.2c0.983,0.008,2.026,0.311,2.939-0.194
			c1.046-0.578,1.88,0.307,2.882,0.251c4.599-0.258,9.207-0.464,13.813-0.478c5.354-0.016,30.709,0.187,36.063,0.297
			c0.673,0.014,1.345,0.039,2.183,0.064c-0.213-0.613-0.362-1.07-0.528-1.52c-0.934-2.532-1.509-5.134-1.478-7.845
			c0.008-0.681,0.047-1.381,0.215-2.035c0.369-1.432,1.531-2.193,2.977-1.872c2.49,0.553,4.995,1.117,7.311,2.213
			c1.226,0.58,2.415,1.315,3.467,2.169c1.348,1.094,2.543,2.377,3.801,3.581c0.254,0.243,0.495,0.5,0.806,0.815
			c0.435-0.671,0.349-1.312,0.396-1.909c0.137-1.748,0.471-3.453,1.011-5.117c1.095-3.374,3.08-6.089,6.056-8.046
			c0.517-0.34,1.063-0.669,1.64-0.874c1.223-0.435,2.352-0.225,3.218,0.799c0.48,0.568,0.919,1.18,1.306,1.814
			c1.915,3.137,2.921,6.573,3.351,10.205c0.265,2.238,0.25,4.463-0.199,6.89c0.364-0.213,0.593-0.284,0.731-0.437
			c3.063-3.399,6.882-5.706,10.985-7.593c1.243-0.571,2.53-1.045,3.802-1.552c0.288-0.115,0.59-0.199,0.893-0.267
			c1.527-0.342,2.527,0.254,2.939,1.796c0.143,0.536,0.23,1.101,0.244,1.655c0.079,3.027-0.396,5.953-1.681,8.721
			c-0.176,0.379-0.297,0.782-0.5,1.327c1.665,0.242,3.196,0.407,4.731,0.509c0.931,0.062,1.867,0.053,2.801,0.067
			c3.673,0.056,27.346,0.121,31.019,0.159c4.981,0.051,9.963,0.067,14.944,0.129c0.99,0.012,1.99,0.1,2.964,0.271
			c1.721,0.302,2.517,1.407,2.348,3.149c-0.327,3.355-0.316,6.719-0.205,10.079c0.205,6.16,0.533,12.316,0.708,18.477
			c0.143,5.041,0.214,10.086,0.186,15.128c-0.062,11.083-0.188,22.166-0.322,33.248c-0.093,7.721-0.244,15.441-0.365,23.161
			c-0.006,0.357,0.025,0.714,0.037,1.043c0.558,0.174,0.755-0.225,1.008-0.454c1.577-1.432,3.344-2.596,5.175-3.662
			c0.638-0.372,1.345-0.652,2.051-0.875c1.245-0.394,2.473-0.201,3.635,0.342c1.16,0.542,1.818,1.48,1.963,2.757
			c0.169,1.484-0.151,2.871-1.026,4.071c-0.729,1-1.574,1.916-2.401,2.91c0.08,0.351,0.428,0.247,0.718,0.252
			c1.493,0.027,2.993-0.033,4.476,0.1c1.041,0.093,2.082,0.373,3.082,0.696c4.212,1.358,4.583,6.331,2.529,8.893
			c-0.714,0.89-1.578,1.583-2.577,2.121c-1.275,0.687-2.648,1.077-4.062,1.338c-0.84,0.155-1.685,0.283-2.509,0.419
			c-0.053,0.489,0.306,0.561,0.536,0.746c0.918,0.741,1.906,1.417,2.722,2.258c0.636,0.655,1.168,1.469,1.546,2.303
			c0.711,1.569,0.219,3.114-1.17,4.121c-0.717,0.52-1.534,0.806-2.396,0.992c-1.948,0.42-3.835,0.183-5.695-0.465
			c-2.309-0.804-4.4-2.037-6.491-3.272c-0.415-0.245-0.837-0.478-1.249-0.714c-0.456,0.403-0.322,0.862-0.333,1.265
			c-0.102,3.984-0.199,7.968-0.276,11.952c-0.383,19.86-0.765,39.72-1.132,59.581c-0.039,2.116,0.019,4.234,0.03,6.351
			c0.003,0.56,0.036,1.124-0.016,1.68c-0.259,2.788-0.552,5.572-0.808,8.36c-0.074,0.8-0.073,1.607-0.094,2.412
			c-0.045,1.742-0.063,3.485-0.13,5.226c-0.035,0.916-0.567,1.507-1.439,1.732c-0.475,0.123-0.982,0.17-1.475,0.172
			c-1.183,0.003-2.366-0.059-3.549-0.062c-2.241-0.006-4.483,0.013-6.724,0.017c-1.058,0.002-2.118,0.025-3.175-0.019
			c-4.355-0.184-28.708-0.409-33.064-0.583c-3.106-0.124-6.214-0.19-9.322-0.282c-0.347,0.321-0.17,0.68-0.057,1.013
			c1.191,3.518,1.394,7.195,1.745,10.848c0.041,0.431,0.032,0.875-0.02,1.305c-0.116,0.974-0.729,1.57-1.725,1.637
			c-0.491,0.033-1-0.012-1.483-0.107c-3.489-0.687-6.609-2.235-9.393-4.381c-1.629-1.256-2.914-2.892-3.705-4.848
			c-0.115-0.284-0.256-0.558-0.468-1.014c-0.238,0.351-0.445,0.552-0.529,0.796c-0.895,2.593-1.962,5.11-3.217,7.549
			c-1.057,2.055-2.294,3.995-3.75,5.789c-0.468,0.576-0.977,1.145-1.561,1.594c-1.09,0.839-2.242,0.696-3.166-0.311
			c-0.251-0.273-0.46-0.589-0.661-0.902c-2.563-3.992-4.811-8.148-6.406-12.628C134.762,274.211,134.334,272.653,133.781,270.873z
			 M154.602,47.87c0.417-0.093,0.829-0.216,1.25-0.273c4.018-0.541,7.706-1.915,10.938-4.389c0.73-0.559,1.39-1.244,1.967-1.964
			c2.236-2.79,2.977-6.091,3.122-9.572c0.014-0.349-0.103-0.704-0.176-1.163c-0.41,0.091-0.706,0.128-0.982,0.221
			c-3.44,1.159-6.636,2.802-9.574,4.927c-2.913,2.107-5.13,4.858-7.051,7.861c-0.18,0.281-0.507,0.598-0.05,1.035
			c2.48-1.05,5.028-2.024,7.303-3.576c0.351-0.24,0.742-0.439,1.14-0.587c0.33-0.123,0.759,0.36,0.644,0.697
			c-0.079,0.229-0.183,0.461-0.325,0.656c-0.701,0.969-1.578,1.769-2.599,2.374c-1.601,0.949-3.244,1.829-4.867,2.741
			c-0.308,0.173-0.708,0.238-0.817,0.651c0.032,0.128,0.062,0.246,0.08,0.355c-0.109-0.081-0.219-0.163-0.328-0.244
			c-0.013,0.018-0.026,0.035-0.039,0.053C154.361,47.74,154.481,47.805,154.602,47.87z M162.545,49.008
			c-0.726,0.225-1.387,0.405-2.031,0.633c-2.251,0.799-4.605,1.088-6.956,1.29c-2.105,0.18-4.228,0.155-6.344,0.199
			c-0.431,0.009-0.93,0.046-1.282-0.144c-0.796-0.431-1.565-0.228-2.363-0.131c-4.122,0.497-8.075,0.012-11.748-2.058
			c-0.861-0.485-1.67-1.17-2.594-1.407c-0.932-0.238-1.979,0.008-2.972-0.029c-8.595-0.322-37.178,0.077-45.762,0.398
			c-2.302,0.086-4.602,0.194-6.904,0.275c-0.808,0.028-1.62,0.033-2.428-0.005c-0.781-0.036-1.559-0.14-2.43-0.223
			c-0.062,0.77-0.136,1.444-0.168,2.12c-0.144,3.047-0.284,6.095-0.412,9.143c-0.23,5.473-0.46,10.946-0.671,16.42
			c-0.091,2.364-0.097,4.731-0.212,7.094c-0.41,8.459-0.716,16.919-0.63,25.39c0.014,1.369-0.066,2.738-0.095,4.108
			c-0.321,15.31-0.906,30.617-0.526,45.937c0.202,8.152,0.263,16.308,0.394,24.461c0.129,8.03,0.322,16.059,0.387,24.089
			c0.071,8.84,0.031,17.681,0.033,26.521c0.001,7.284-0.01,14.567-0.008,21.851c0,1.307,0.024,2.615,0.058,3.922
			c0.014,0.559,0.069,1.118,0.127,1.675c0.063,0.604,0.152,1.206,0.244,1.921c1.327,0.067,2.558,0.003,3.79-0.061
			c3.792-0.198,7.583-0.497,11.377-0.561c7.096-0.12,34.195-0.126,41.292-0.117c1.178,0.001,2.126-0.242,3.076-0.978
			c2.984-2.311,6.381-3.302,10.158-2.826c0.801,0.101,1.604,0.23,2.386,0.428c0.998,0.254,1.97,0.275,2.909-0.155
			c2-0.916,4.082-1.034,6.217-0.695c0.502,0.08,0.947,0.029,1.436-0.191c2.005-0.9,4.112-0.906,6.225-0.505
			c2.714,0.515,4.91,2.052,7.041,3.694c0.436,0.336,0.845,0.705,1.413,1.181c0.55-1.263,1.636-1.249,2.696-1.289
			c0.373-0.014,0.747,0.003,1.12,0.012c7.22,0.19,14.44,0.384,21.66,0.571c2.365,0.061,24.731,0.109,27.097,0.143
			c0.415,0.006,0.832-0.088,1.311-0.143c0.021-0.708,0.054-1.322,0.055-1.936c0.003-1.992-0.033-3.985-0.006-5.977
			c0.105-7.906,0.21-15.812,0.349-23.718c0.39-22.16,0.778-44.321,1.203-66.481c0.52-27.14,1.091-54.279,1.611-81.419
			c0.174-9.088,0.265-18.177,0.382-27.266c0.007-0.539,0.175-1.12-0.306-1.722c-0.588-0.051-1.26-0.119-1.933-0.167
			c-1.304-0.093-2.61-0.163-3.913-0.263c-3.662-0.278-27.322-0.603-30.987-0.843c-5.529-0.361-11.063-0.64-16.592-1.007
			C166.396,50.037,164.466,49.851,162.545,49.008z M225.434,261.15c0.056-0.729,0.113-1.337,0.147-1.947
			c0.157-2.859,0.294-5.719,0.467-8.576c0.101-1.677,0.32-3.348,0.376-5.026c0.15-4.48,0.265-8.962,0.349-13.445
			c0.224-12.015,0.41-24.031,0.638-36.046c0.254-13.385,0.541-26.769,0.803-40.153c0.019-0.987,0.136-1.982-0.294-2.945
			c-0.138-0.309-0.151-0.771-0.023-1.082c0.443-1.078,0.385-2.199,0.403-3.315c0.141-8.654,0.273-17.307,0.409-25.961
			c0.244-15.564,0.562-31.127,0.195-46.693c-0.128-5.414-0.366-10.826-0.504-16.24c-0.115-4.48-0.276-8.964,0.213-13.436
			c0.038-0.351,0.014-0.709,0.02-1.178c-1.16-0.04-2.185-0.083-3.301,0.042c-0.299,1.288-0.121,2.544-0.309,3.755
			c-0.128,0.825,0.505,1.392,0.543,2.13c0.043,0.831-0.848,1.353-0.733,2.26c0.093,0.733-0.025,1.491-0.039,2.238
			c-0.434,24.342-0.878,48.684-1.297,73.026c-0.426,24.716-0.801,49.433-1.249,74.148c-0.348,19.174-0.774,38.347-1.159,57.521
			c-0.006,0.289,0.08,0.579,0.135,0.951C222.614,261.308,223.897,261.405,225.434,261.15z M61.631,41.08
			c-0.047,0.347-0.129,0.7-0.136,1.054c-0.019,0.996,0.007,1.992-0.009,2.988c-0.123,7.285-0.22,14.57-0.392,21.853
			c-0.12,5.104-0.303,10.207-0.537,15.306c-0.254,5.536-0.616,11.066-0.9,16.601c-0.567,11.073-0.736,22.154-0.654,33.24
			c0.081,10.958,0.103,21.917,0.162,32.876c0.037,6.911,0.088,13.823,0.146,20.734c0.031,3.611,0.069,7.223,0.144,10.833
			c0.174,8.404,0.374,16.807,0.558,25.21c0.129,5.914,0.243,11.827,0.376,17.741c0.06,2.677,0.165,5.352,0.225,8.029
			c0.108,4.792,0.399,9.582,0.186,14.379c-0.016,0.359,0.037,0.72,0.06,1.119c1.325-0.015,2.537-0.164,3.814-0.439
			c-0.036-0.415-0.064-0.713-0.088-1.011c-0.111-1.365-0.296-2.728-0.317-4.094c-0.088-5.79-0.145-11.58-0.178-17.371
			c-0.027-4.67,0.022-9.34-0.009-14.01c-0.06-9.277,0.009-18.554-0.213-27.831c-0.245-10.208-0.297-20.42-0.426-30.631
			c-0.044-3.487-0.078-6.974-0.1-10.461c-0.034-5.541-0.087-11.082-0.066-16.623c0.014-3.736,0.132-7.471,0.221-11.206
			c0.144-6.038,0.305-12.076,0.453-18.114c0.056-2.303,0.148-4.607,0.136-6.91c-0.032-6.043,0.163-12.078,0.482-18.112
			c0.197-3.73,0.299-7.465,0.433-11.199c0.172-4.791,0.326-9.583,0.499-14.374c0.213-5.911,0.44-11.822,0.65-17.734
			c0.015-0.415-0.063-0.833-0.101-1.287C64.538,41.447,63.134,41.27,61.631,41.08z M144.411,286.708
			c0.383-0.46,0.628-0.737,0.854-1.029c3.013-3.897,4.916-8.351,6.428-12.985c0.543-1.662,0.759-3.408,0.685-5.163
			c-0.113-2.681-1.087-4.962-3.257-6.644c-1.231-0.954-2.568-1.03-4.104-0.522c0.064,0.872,0.148,1.671,0.177,2.472
			c0.084,2.363,0.169,4.726,0.199,7.09c0.007,0.584,0.076,1.313-0.696,1.57c-0.43,0.143-0.741-0.292-0.991-1.349
			c-0.129-0.545-0.248-1.093-0.331-1.646c-0.324-2.153-0.631-4.309-0.947-6.464c-0.044-0.297-0.009-0.635-0.479-0.833
			c-0.371,0.171-0.795,0.436-1.258,0.566c-1.255,0.354-1.969,1.252-2.472,2.361c-0.307,0.677-0.59,1.373-0.8,2.085
			c-0.718,2.43-0.37,4.821,0.433,7.154c1.319,3.831,2.802,7.593,5.025,11.015C143.341,285.102,143.669,285.914,144.411,286.708z
			 M148.567,20.453c-0.546,0.295-0.881,0.449-1.19,0.646c-2.512,1.603-4.169,3.869-5.099,6.675c-0.97,2.926-1.294,5.941-1.08,9.008
			c0.192,2.762,0.947,5.371,2.323,7.786c0.15,0.263,0.306,0.557,0.77,0.416c0.049-0.4,0.091-0.825,0.153-1.248
			c0.279-1.905,0.547-3.813,1.194-5.639c0.165-0.466,0.342-0.937,0.593-1.358c0.096-0.161,0.436-0.282,0.633-0.246
			c0.193,0.035,0.471,0.276,0.494,0.454c0.062,0.484,0.036,0.985-0.005,1.475c-0.191,2.29-0.404,4.579-0.595,6.869
			c-0.029,0.347-0.153,0.764,0.394,0.957c0.876-0.315,1.509-1.002,2.11-1.71c1.057-1.244,1.831-2.656,2.353-4.201
			c1.151-3.41,1.581-6.889,0.972-10.464c-0.452-2.653-1.19-5.207-2.643-7.504C149.551,21.749,149.087,21.172,148.567,20.453z
			 M140.638,44.711c-0.287-0.797-0.637-1.578-0.85-2.395c-0.54-2.073-1.612-3.889-2.699-5.692c-0.509-0.846-1.121-1.649-1.791-2.375
			c-2.671-2.893-5.799-5.057-9.73-5.884c-0.668-0.141-1.325-0.336-1.988-0.499c-0.343-0.085-0.692-0.286-1.113,0.088
			c-0.029,0.288-0.103,0.654-0.096,1.018c0.069,3.353,0.837,6.513,2.568,9.42c1.749,2.937,4.073,5.352,6.853,7.282
			c2.434,1.689,5.175,2.692,8.182,2.806c0.34,0.013,0.754,0.138,0.977-0.4c-0.538-0.383-1.085-0.782-1.641-1.169
			c-1.891-1.316-3.724-2.702-5.381-4.309c-1.167-1.132-2.203-2.368-2.91-3.847c-0.131-0.274-0.228-0.577-0.264-0.877
			c-0.019-0.153,0.092-0.415,0.215-0.47c0.196-0.088,0.529-0.144,0.666-0.036c0.385,0.302,0.728,0.672,1.038,1.054
			C134.817,41.071,137.573,42.976,140.638,44.711z M69.006,45.854c1.58-0.103,3.058-0.188,4.533-0.3
			c1.614-0.122,3.223-0.307,4.838-0.398c2.548-0.143,5.099-0.23,7.649-0.342c4.666-0.204,29.33-0.412,34.003-0.151
			c1.74,0.097,3.486,0.075,5.23,0.089c0.281,0.002,0.563-0.087,0.968-0.154c-1.395-1.871-2.684-3.601-3.919-5.258
			c-0.748,0.207-1.439,0.477-2.154,0.579c-1.477,0.211-2.963,0.409-4.452,0.478c-7.463,0.347-34.929,0.647-42.393,0.974
			c-1.305,0.057-2.607,0.167-3.91,0.26c-0.047,0.003-0.088,0.083-0.265,0.261C69.054,43.079,68.853,44.405,69.006,45.854z
			 M154.869,259.597c0.52,0.61,0.789,0.94,1.073,1.257c0.828,0.927,1.701,1.816,2.482,2.781c0.977,1.205,1.919,2.444,2.797,3.722
			c0.376,0.547,0.584,1.221,0.796,1.862c0.051,0.154-0.15,0.449-0.312,0.594c-0.105,0.095-0.402,0.115-0.518,0.033
			c-0.4-0.282-0.787-0.596-1.128-0.948c-1.514-1.561-3.007-3.143-4.52-4.705c-0.193-0.199-0.461-0.325-0.776-0.541
			c-0.026,0.332-0.088,0.525-0.047,0.693c0.369,1.515,0.622,3.039,0.54,4.609c-0.015,0.289,0.103,0.607,0.233,0.876
			c0.594,1.229,1.202,2.452,1.827,3.666c0.894,1.736,2.065,3.273,3.653,4.409c1.98,1.417,4.168,2.46,6.496,3.191
			c0.344,0.108,0.709,0.258,1.095-0.159c-0.025-0.605-0.027-1.282-0.084-1.954c-0.236-2.792-0.592-5.569-1.638-8.191
			c-1.76-4.41-4.528-7.971-8.824-10.196C157.14,260.143,156.271,259.669,154.869,259.597z M231.16,161.587
			c0.223,0.097,0.386,0.193,0.561,0.242c3.257,0.908,6.571,1.427,9.957,1.351c1.872-0.042,3.734-0.281,5.501-0.927
			c0.867-0.317,1.692-0.775,2.484-1.257c0.65-0.396,1.08-1.033,1.322-1.762c0.553-1.66-0.218-3.315-1.891-3.919
			c-2.34-0.845-4.786-0.922-7.195-0.52c-3.003,0.502-5.972,1.217-8.949,1.868c-0.593,0.13-1.157,0.388-1.767,0.599
			C231.029,158.778,230.942,160.184,231.16,161.587z M166.187,47.456c1.058,0.237,1.978,0.179,2.884,0.228
			c6.214,0.336,12.428,0.665,18.642,1.001c0.497,0.027,0.991,0.102,1.487,0.139c3.599,0.272,27.198,0.547,30.799,0.801
			c0.605,0.043,1.217-0.016,1.916-0.029c0.221-1.617,0.219-3.111-0.103-4.655c-0.789-0.023-1.466-0.053-2.144-0.062
			c-2.925-0.036-25.85-0.052-28.775-0.103c-3.608-0.062-7.218-0.12-10.824-0.241c-1.925-0.065-3.849-0.219-5.766-0.411
			c-1.163-0.117-2.311-0.385-3.552-0.6c-0.472,0.471-0.932,0.977-1.443,1.426c-0.466,0.409-0.998,0.743-1.481,1.135
			C167.324,46.492,166.646,46.706,166.187,47.456z M225.544,267.379c0.431-0.86,0.387-1.768,0.359-2.753
			c-0.402-0.07-0.757-0.167-1.117-0.188c-1.43-0.082-2.86-0.165-4.291-0.203c-6.41-0.169-32.823-0.273-39.231-0.498
			c-4.85-0.17-9.712-0.191-14.533-0.875c-0.283-0.04-0.577,0.001-1.03,0.007c0.297,0.79,0.782,1.277,1.146,1.83
			c0.406,0.617,0.83,1.222,1.294,1.902c1.767,0.058,3.503,0.122,5.24,0.17c1.555,0.043,3.114,0.025,4.667,0.108
			c8.832,0.471,37.668,0.67,46.512,0.571C224.868,267.447,225.177,267.406,225.544,267.379z M122.433,264.655
			c-0.473-0.269-1.034-0.182-1.564-0.175c-2.734,0.034-5.471,0.193-8.201,0.109c-3.177-0.097-26.338,0.049-29.499,0.261
			c-7.131,0.478-14.257,1.021-21.41,1.061c-0.168,0.001-0.335,0.115-0.6,0.213c0.009,0.878-0.376,1.753-0.008,2.674
			c0.323-0.01,0.57-0.014,0.817-0.026c3.475-0.18,6.949-0.421,10.426-0.527c3.851-0.117,7.707-0.072,11.56-0.166
			c4.908-0.119,29.814-0.305,34.721-0.465c0.737-0.024,1.474-0.067,2.215-0.102c0.534-0.844,1.037-1.627,1.523-2.42
			C122.466,265.006,122.426,264.863,122.433,264.655z M56.281,146.775c-2.755-0.167-5.285-0.32-7.815-0.473
			c-0.372-0.023-0.744-0.053-1.117-0.061c-2.241-0.048-4.47,0.038-6.664,0.567c-0.796,0.192-1.541,0.476-2.188,0.987
			c-2.25,1.773-1.272,3.522,0.303,4.505c0.364,0.227,0.779,0.409,1.195,0.506c0.844,0.196,1.702,0.425,2.56,0.449
			c1.423,0.039,2.863,0.032,4.271-0.145c2.029-0.255,4.049-0.623,6.048-1.055c1.194-0.258,2.395-0.617,3.292-1.414
			C56.207,149.302,56.243,148.07,56.281,146.775z M134.327,263.112c-0.447,0.285-0.818,0.499-1.164,0.745
			c-1.573,1.118-3.135,2.251-4.71,3.365c-0.404,0.286-0.823,0.566-1.271,0.771c-0.183,0.083-0.505,0.028-0.685-0.087
			c-0.298-0.189-0.337-0.551-0.137-0.822c0.442-0.597,0.874-1.224,1.42-1.717c1.338-1.21,2.743-2.345,4.108-3.525
			c0.195-0.169,0.578-0.259,0.418-0.743c-1.002,0.163-1.858,0.658-2.705,1.151c-0.369,0.215-0.795,0.464-0.993,0.812
			c-0.335,0.59-0.824,0.879-1.389,1.168c-0.43,0.22-0.837,0.551-1.15,0.921c-0.682,0.805-1.364,1.625-1.929,2.513
			c-1.814,2.855-3.098,5.954-4.065,9.188c-0.057,0.19,0.029,0.422,0.059,0.764c2.988-1.179,5.643-2.647,8.152-4.389
			c0.153-0.106,0.291-0.235,0.424-0.365c2.628-2.574,4.545-5.589,5.634-9.112C134.391,263.596,134.338,263.411,134.327,263.112z
			 M245.775,172.324c-0.176-1.052-0.867-1.791-1.658-2.375c-1.097-0.809-2.252-1.557-3.449-2.209
			c-2.643-1.441-5.527-2.237-8.428-2.964c-0.336-0.084-0.681-0.133-1.129-0.219c-0.151,1.242-0.196,2.341-0.054,3.446
			c2.64,2.187,5.514,3.882,8.732,4.99c1.328,0.457,2.682,0.553,4.052,0.355C244.563,173.243,245.326,173.116,245.775,172.324z
			 M56.168,154.616c-2.956,0.729-5.729,1.574-8.156,3.241c-1.013,0.696-1.929,1.55-2.812,2.412
			c-0.667,0.652-1.067,1.499-1.385,2.392c-0.554,1.557,0.603,3.027,2.319,2.897c1.068-0.081,2.104-0.331,2.973-0.963
			c0.898-0.654,1.805-1.333,2.558-2.141c2.007-2.154,3.394-4.712,4.53-7.411C56.217,154.992,56.19,154.921,56.168,154.616z
			 M231.272,154.27c0.622-0.199,1.1-0.31,1.542-0.502c2.455-1.062,4.743-2.423,6.902-3.994c0.859-0.625,1.569-1.415,2.058-2.366
			c0.252-0.49,0.469-1.017,0.589-1.553c0.171-0.76-0.265-1.294-1.045-1.463c-0.923-0.199-1.704,0.157-2.465,0.594
			c-2.382,1.367-4.462,3.098-6.407,5.039c-1.023,1.021-1.431,2.105-1.305,3.473C231.159,153.681,231.202,153.861,231.272,154.27z
			 M55.04,143.83c0.281-0.898,0.307-0.917-0.049-1.355c-0.938-1.156-1.924-2.273-2.837-3.448c-1.626-2.092-3.848-2.824-6.376-2.896
			c-0.684-0.019-1.511-0.1-1.854,0.575c-0.415,0.817,0.332,1.373,0.835,1.889c1.401,1.436,3,2.605,4.88,3.343
			c1.617,0.634,3.247,1.236,4.875,1.84C54.675,143.838,54.868,143.815,55.04,143.83z"
            fill="white"/>
	</g>
</g>
</svg>
