<?xml version="1.0"?>
<svg viewBox="0 0 200 300" width="200" height="300" xmlns="http://www.w3.org/2000/svg" xmlns:svg="http://www.w3.org/2000/svg" enable-background="new 0 0 200 300" version="1.1" xml:space="preserve">

 <g class="layer">
  <title>Layer 1</title>
  <g id="svg_1" xmlns="http://www.w3.org/2000/svg">
   <path d="m159.27,264.4c1.23,1.39 2.58,2.85 3.86,4.37c1.08,1.29 2.14,2.6 3.09,3.98c0.55,0.81 0.99,1.74 1.28,2.67c0.53,1.65 -0.06,2.89 -1.53,3.8c-1.74,1.06 -4.99,0.98 -6.64,-0.64c-0.85,-0.82 -1.61,-1.73 -2.37,-2.63c-0.65,-0.76 -1.23,-1.56 -1.9,-2.41c-1.98,-0.08 -3.96,-0.15 -5.94,0.01c-3.73,0.3 -7.45,0.59 -11.17,0.86c-0.81,0.05 -1.62,0.05 -2.43,0.02c-9.03,-0.37 -18.05,-0.33 -27.08,-0.09c-4.79,0.13 -9.59,0.14 -14.38,0.25c-3.3,0.07 -6.59,0.21 -9.89,0.33c-7.47,0.25 -14.94,0.09 -22.41,-0.03c-2.62,-0.04 -5.23,-0.01 -7.85,-0.02c-7.66,-0.03 -15.32,-0.06 -22.97,-0.11c-1.87,-0.01 -3.74,-0.1 -5.6,-0.18c-0.36,-0.02 -0.71,-0.2 -1.16,-0.33c-0.32,0.3 -0.68,0.62 -1.01,0.98c-1.61,1.73 -3.2,3.48 -4.83,5.21c-0.51,0.54 -1.04,1.07 -1.65,1.5c-1.15,0.81 -2.23,0.74 -3.19,-0.26c-0.82,-0.84 -1.53,-1.79 -2.24,-2.74c-0.53,-0.72 -0.51,-1.53 -0.04,-2.28c0.37,-0.58 0.8,-1.11 1.22,-1.65c0.91,-1.18 1.83,-2.36 2.75,-3.54c0.1,-1.42 0.24,-2.84 0.3,-4.27c0.13,-2.92 0.28,-5.84 0.3,-8.77c0.05,-4.54 -0.01,-9.09 -0.02,-13.63c0,-0.44 -0.01,-0.87 0.01,-1.31c0.34,-6.42 -0.22,-12.82 -0.52,-19.22c-0.17,-3.79 -0.43,-7.58 -0.64,-11.37c-0.34,-5.84 -0.67,-11.69 -1,-17.53c-0.03,-0.56 -0.04,-1.12 -0.06,-1.68c-0.42,-15.43 -0.5,-30.87 -0.54,-46.31c-0.02,-8.04 0.02,-16.07 0.14,-24.1c0.08,-5.6 0.35,-11.2 0.52,-16.8c0.05,-1.37 0.08,-2.74 0.09,-4.11c0.02,-11.64 0.02,-23.28 0.08,-34.92c0.01,-2.43 0.24,-4.85 0.32,-7.28c0.25,-6.65 0.46,-13.31 0.72,-19.97c0.12,-3.05 0.35,-6.09 0.48,-9.13c0.07,-1.93 0.03,-3.86 0.04,-5.79c0.01,-1.31 0,-2.61 0,-3.97c-0.38,-0.32 -0.76,-0.63 -1.14,-0.93c-1.68,-1.3 -3.38,-2.56 -5.02,-3.89c-0.68,-0.54 -1.31,-1.17 -1.83,-1.86c-0.91,-1.2 -0.99,-2.57 -0.22,-3.85c1,-1.67 2.28,-3.13 3.96,-4.15c0.52,-0.32 1.12,-0.57 1.71,-0.71c1.47,-0.34 2.73,0.05 3.59,1.35c0.52,0.77 1,1.58 1.42,2.41c0.71,1.38 1.35,2.8 2.03,4.2c0.3,0.61 0.63,1.21 0.97,1.88c2.26,-0.72 4.55,-0.43 6.82,-0.43c2.99,0.01 5.98,-0.05 8.97,-0.16c4.97,-0.18 9.95,-0.41 14.92,-0.63c4.67,-0.21 9.33,-0.49 14,-0.65c4.04,-0.14 8.09,-0.18 12.14,-0.22c2.74,-0.02 5.48,0.08 8.22,0.08c5.79,0.01 11.58,0.07 17.37,-0.03c5.16,-0.08 10.33,-0.34 15.49,-0.52c0.93,-0.03 1.87,-0.11 2.8,-0.08c8.09,0.24 16.19,0.21 24.27,0.86c2.54,0.21 5.08,0.37 7.78,0.57c0.18,-0.2 0.48,-0.51 0.73,-0.85c1.27,-1.69 2.52,-3.4 3.8,-5.09c0.37,-0.49 0.77,-0.99 1.22,-1.4c0.74,-0.67 1.56,-0.78 2.41,-0.23c1.82,1.18 3.25,2.75 3.99,4.79c0.59,1.61 0.33,3.23 -0.86,4.55c-0.61,0.69 -1.33,1.3 -2.05,1.9c-0.85,0.71 -1.76,1.37 -2.54,1.97c0,1.44 0,2.74 0,4.04c0.02,8.34 -0.03,16.69 0.07,25.03c0.13,10.33 0.28,20.66 0.15,31c-0.11,9.27 0,18.55 0.2,27.83c0.18,8.52 0.66,17.04 0.91,25.57c0.26,8.96 0.62,17.92 0.55,26.88c-0.06,7.66 -0.03,15.32 -0.15,22.98c-0.15,8.83 -0.43,17.67 -0.63,26.51c-0.18,8.47 -0.26,16.93 -0.5,25.4c-0.13,4.47 -0.52,8.94 -0.76,13.42c-0.24,4.29 -0.44,8.58 -0.67,12.87c-0.05,0.86 -0.16,1.71 -0.26,2.68zm-135.7,-239.46c0,0.89 0,1.5 0,2.11c0.09,7.03 0.23,14.07 0.26,21.1c0.14,31.69 0.24,63.38 0.37,95.07c0.12,28.76 0.26,57.53 0.4,86.29c0.05,11.27 0.01,22.54 0.5,33.8c0.02,0.48 -0.1,1.01 0.4,1.5c0.27,0 0.64,0.04 0.99,-0.01c1.92,-0.27 3.85,-0.25 5.78,-0.18c1,0.03 1.99,0.01 2.99,-0.02c2.8,-0.05 5.6,-0.15 8.4,-0.18c5.05,-0.04 10.09,-0.03 15.13,-0.06c8.53,-0.06 17.06,-0.12 25.59,-0.2c4.73,-0.05 9.46,-0.13 14.19,-0.22c5.48,-0.1 10.96,-0.36 16.44,-0.3c10.96,0.14 21.91,-0.19 32.87,-0.31c0.49,-0.01 0.97,-0.07 1.49,-0.11c0.29,-0.8 0.19,-1.55 0.17,-2.28c-0.1,-6.1 -0.28,-12.2 -0.32,-18.3c-0.07,-9.4 -0.03,-18.8 -0.06,-28.2c-0.07,-19.12 -0.14,-38.23 -0.22,-57.34c-0.12,-27.96 -0.45,-55.91 0.01,-83.86c0.25,-15.81 0.56,-31.62 0.84,-47.43c0.01,-0.49 -0.03,-0.97 -0.05,-1.47c-0.27,-0.03 -0.45,-0.09 -0.62,-0.08c-2.93,0.14 -5.85,0.27 -8.77,0.44c-5.35,0.33 -10.7,0.19 -16.06,0.05c-8.34,-0.2 -16.68,-0.35 -25.02,-0.48c-4.17,-0.06 -8.34,-0.03 -12.52,-0.01c-10.52,0.03 -21.04,0.05 -31.56,0.13c-5.36,0.04 -10.71,0.19 -16.06,0.3c-4.55,0.08 -9.09,0.17 -13.63,0.25c-0.56,0.01 -1.11,0 -1.93,0zm133.6,237.32c0.04,-0.48 0.1,-0.77 0.1,-1.06c0.03,-5.11 0.46,-10.19 0.76,-15.29c0.19,-3.23 0.42,-6.46 0.51,-9.69c0.24,-9.15 0.42,-18.3 0.61,-27.45c0.06,-2.92 0.08,-5.85 0.15,-8.78c0.18,-7.4 0.41,-14.81 0.55,-22.21c0.34,-17.81 -0.32,-35.61 -0.8,-53.41c-0.1,-3.6 -0.2,-7.21 -0.38,-10.82c-0.47,-9.08 -0.67,-18.17 -0.6,-27.26c0.11,-13.07 0.05,-26.14 -0.05,-39.21c-0.07,-8.03 -0.33,-16.07 0.12,-24.09c0.01,-0.22 -0.08,-0.44 -0.15,-0.82c-2,1.3 -3.53,2.99 -5.69,3.75c-0.03,0.71 -0.08,1.33 -0.09,1.94c-0.15,9.71 -0.3,19.42 -0.43,29.14c-0.09,7.65 -0.15,15.31 -0.21,22.97c-0.08,10.14 -0.25,20.29 -0.22,30.44c0.11,40.71 0.28,81.43 0.44,122.14c0.03,6.16 0.15,12.33 0.24,18.49c0.04,2.61 0.1,5.23 0.17,7.84c0.01,0.47 0.13,0.93 0.21,1.49c1.96,-0.34 3.16,1.05 4.76,1.89zm-139.27,5.29c0.11,0.05 0.22,0.1 0.34,0.16c1.08,-1.18 2.2,-2.32 3.24,-3.54c0.25,-0.29 0.32,-0.8 0.33,-1.21c0.1,-3.86 0.24,-7.72 0.23,-11.57c-0.05,-19.87 -0.13,-39.73 -0.24,-59.6c-0.12,-22.91 -0.27,-45.83 -0.42,-68.74c-0.1,-15.38 -0.26,-30.77 -0.34,-46.15c-0.08,-16.93 -0.1,-33.87 -0.15,-50.81c0,-0.49 0,-0.97 0,-1.51c-0.93,-0.49 -1.65,-1.18 -2.73,-1.47c-0.23,0.72 -0.14,1.33 -0.14,1.93c-0.01,1.99 0.03,3.98 -0.04,5.97c-0.1,2.8 -0.39,5.6 -0.41,8.4c-0.05,7.53 -0.48,15.06 -0.79,22.58c-0.05,1.43 -0.18,2.86 -0.19,4.29c-0.08,11.77 -0.14,23.54 -0.21,35.31c-0.01,1.31 -0.02,2.61 -0.07,3.92c-0.19,5.54 -0.44,11.07 -0.58,16.61c-0.12,4.61 -0.13,9.22 -0.17,13.83c-0.04,4.29 -0.16,8.59 -0.07,12.88c0.26,13.45 0.03,26.9 0.52,40.35c0.22,5.91 0.27,11.83 0.55,17.73c0.23,4.6 0.59,9.2 0.73,13.8c0.16,5.04 0.49,10.08 0.72,15.11c0.06,1.43 0.03,2.87 0.03,4.3c-0.01,2.55 -0.05,5.1 -0.06,7.66c-0.02,6.1 0.23,12.2 -0.08,18.3c-0.02,0.49 0,0.98 0,1.47zm6.5,-245.12c2.8,-0.09 5.48,-0.18 8.15,-0.26c5.04,-0.17 10.08,-0.45 15.11,-0.48c12.7,-0.09 25.4,-0.13 38.1,-0.07c9.77,0.05 19.54,0.27 29.31,0.43c5.6,0.09 11.2,0.25 16.8,0.34c4.61,0.07 9.21,-0.23 13.8,-0.64c1.05,-0.09 2.1,-0.15 3.17,-0.23c0.9,-1.24 1.78,-2.44 2.64,-3.65c0.18,-0.25 0.38,-0.51 0.05,-0.97c-0.5,-0.06 -1.1,-0.14 -1.7,-0.18c-1.31,-0.09 -2.61,-0.17 -3.92,-0.25c-2.3,-0.14 -4.59,-0.37 -6.89,-0.4c-7.97,-0.12 -15.93,-0.39 -23.9,-0.1c-2.8,0.1 -5.59,0.2 -8.39,0.29c-8.78,0.29 -17.55,0.25 -26.33,0.08c-8.16,-0.16 -16.3,0.13 -24.45,0.5c-2.67,0.12 -5.34,0.3 -8.02,0.4c-5.41,0.21 -10.81,0.44 -16.23,0.54c-2.92,0.05 -5.84,-0.14 -8.76,-0.21c-0.28,0 -0.63,-0.15 -0.87,0.34c0.61,1.48 1.42,2.92 2.33,4.52zm125.49,243.92c-0.34,-0.05 -0.52,-0.1 -0.7,-0.1c-5.23,-0.02 -10.46,-0.05 -15.69,-0.03c-5.67,0.01 -11.33,0.05 -17,0.12c-4.23,0.04 -8.46,0.13 -12.7,0.22c-6.28,0.14 -12.57,0.35 -18.86,0.43c-6.72,0.07 -13.44,0.02 -20.17,0.03c-4.79,0.01 -9.59,0.03 -14.38,0.05c-4.11,0.02 -8.22,-0.01 -12.33,0.09c-2.61,0.07 -5.22,0.15 -7.83,-0.04c-0.61,-0.04 -1.23,-0.01 -1.97,-0.01c0.34,1.67 -0.37,2.86 -1.34,3.98c-0.23,0.26 -0.59,0.5 -0.38,0.99c0.14,0.04 0.31,0.11 0.48,0.11c1.25,0.01 2.49,-0.01 3.74,-0.01c3.17,0 6.34,-0.01 9.52,0c1.93,0.01 3.86,0.06 5.79,0.07c7.65,0.04 15.31,0.09 22.97,0.08c6.47,-0.01 12.95,-0.07 19.42,-0.19c5.04,-0.1 10.08,-0.35 15.12,-0.47c3.67,-0.08 7.35,-0.09 11.02,-0.09c2.99,0 5.98,-0.08 8.96,0.13c5.04,0.35 10.08,0.28 15.12,0.25c0.87,-0.01 1.74,-0.09 2.61,-0.14c3.6,-0.22 7.2,-0.44 10.8,-0.67c0.29,-0.02 0.64,0.09 0.87,-0.39c-0.9,-1.55 -2.09,-2.97 -3.07,-4.41zm13.42,11.23c0.17,-0.03 0.61,-0.06 1.02,-0.19c0.78,-0.26 1.07,-0.84 0.74,-1.62c-0.31,-0.74 -0.69,-1.46 -1.14,-2.13c-2.38,-3.52 -5.22,-6.66 -8.43,-9.44c-0.47,-0.4 -1,-0.75 -1.55,-1.03c-0.72,-0.38 -1.51,0.16 -1.58,0.99c-0.06,0.66 0.19,1.2 0.56,1.72c2,2.86 3.97,5.73 5.97,8.58c0.5,0.71 1.06,1.39 1.64,2.03c0.66,0.73 1.53,1.05 2.77,1.09zm-2.57,-267.94c-0.32,0.33 -0.59,0.57 -0.81,0.86c-2.74,3.7 -5.48,7.4 -8.22,11.11c-0.11,0.14 -0.27,0.3 -0.28,0.47c-0.04,0.36 -0.07,0.74 0.02,1.09c0.04,0.13 0.43,0.29 0.59,0.24c0.28,-0.09 0.51,-0.34 0.75,-0.53c1.82,-1.41 3.63,-2.83 5.46,-4.23c1.09,-0.83 2.22,-1.61 3.31,-2.44c0.44,-0.33 0.86,-0.71 1.24,-1.12c0.81,-0.9 0.91,-1.68 0.3,-2.73c-0.59,-1.02 -1.37,-1.89 -2.36,-2.72zm-145.37,270.35c0.5,-0.45 0.93,-0.79 1.3,-1.19c2.04,-2.18 4.07,-4.36 6.08,-6.56c0.75,-0.83 1.41,-1.73 2.15,-2.57c0.74,-0.86 0.89,-1.73 0.17,-2.79c-0.65,-0.06 -1.27,-0.6 -2.22,-0.42c-3.16,3.58 -6.29,7.34 -9.43,11.12c0.46,0.93 1.06,1.62 1.95,2.41zm-1.71,-271.38c-1.29,0.27 -2.16,1.25 -3.01,2.22c-1.5,1.72 -1.49,2.14 0.24,3.63c2.87,2.48 5.86,4.8 9.12,6.74c0.18,0.11 0.38,0.38 0.67,0.04c-0.08,-0.2 -0.15,-0.43 -0.26,-0.64c-1.33,-2.59 -2.66,-5.18 -4,-7.77c-0.48,-0.94 -0.95,-1.89 -1.46,-2.81c-0.3,-0.53 -0.56,-1.12 -1.3,-1.41z" id="svg_2" fill="white" />
   <path d="m8.32,102.6c-0.15,9.46 -0.35,18.92 -0.42,28.38c-0.08,9.15 -0.4,18.31 -0.02,27.45c0.33,8.09 0.67,16.18 1.21,24.25c0.56,8.51 0.92,17.03 0.94,25.56c0.01,3.3 0.15,6.59 0.2,9.89c0.04,2.18 0.08,4.36 0.02,6.54c-0.12,4.6 -0.37,9.2 -0.47,13.81c-0.2,8.4 -0.07,16.8 0.38,25.2c0.06,1.3 0.3,2.59 0.48,3.88c0.09,0.66 -0.03,1.08 -0.45,1.29c-0.47,0.24 -1.09,0.06 -1.48,-0.45c-0.57,-0.71 -0.68,-1.59 -0.8,-2.45c-0.17,-1.3 -0.33,-2.6 -0.37,-3.9c-0.22,-7.66 -0.51,-15.31 -0.22,-22.97c0.2,-5.1 0.44,-10.2 0.53,-15.3c0.05,-3.36 -0.14,-6.72 -0.21,-10.08c-0.05,-1.99 -0.11,-3.98 -0.09,-5.98c0.06,-8.41 -0.41,-16.79 -1.07,-25.17c-0.17,-2.11 -0.31,-4.23 -0.41,-6.34c-0.36,-7.9 -0.7,-15.79 -1.03,-23.69c-0.05,-1 -0.05,-1.99 -0.04,-2.99c0.07,-6.72 0.16,-13.44 0.24,-20.17c0.04,-3.67 0.04,-7.34 0.11,-11.02c0.16,-7.9 0.36,-15.8 0.54,-23.7c0.05,-2.06 0.11,-4.11 0.14,-6.17c0.07,-4.35 0.12,-8.71 0.18,-13.07c0.01,-1.05 0.04,-2.11 -0.01,-3.17c-0.39,-7.65 -0.13,-15.31 -0.12,-22.97c0,-1.67 0.16,-3.35 0.25,-5.03c0.37,-6.4 0.74,-12.8 1.09,-19.2c0.08,-1.39 0.39,-2.71 0.84,-4c0.11,-0.32 0.36,-0.59 0.69,-0.5c0.26,0.08 0.59,0.31 0.67,0.54c0.15,0.46 0.22,0.97 0.2,1.46c-0.07,2.43 -0.18,4.85 -0.28,7.28c-0.04,1.12 -0.12,2.24 -0.12,3.36c0,4.36 -0.35,8.7 -0.64,13.05c-0.09,1.24 -0.13,2.49 -0.14,3.73c-0.01,5.42 -0.02,10.83 0,16.25c0.01,1.62 0.12,3.23 0.14,4.85c0.04,2.24 0.06,4.48 0.04,6.72c-0.03,2.99 -0.09,5.98 -0.15,8.96c-0.08,3.92 -0.19,7.84 -0.26,11.76c-0.03,1.37 -0.01,2.74 -0.01,4.11c-0.03,0 -0.06,0 -0.08,0z" id="svg_3" fill="white" />
   <path d="m168.34,148.05c-0.07,-9.69 -0.11,-18.28 -0.23,-26.87c-0.04,-2.92 -0.3,-5.84 -0.45,-8.76c-0.07,-1.43 -0.19,-2.86 -0.19,-4.29c-0.01,-3.3 -0.33,-6.59 -0.62,-9.87c-0.06,-0.75 -0.11,-1.49 -0.15,-2.24c-0.22,-4.29 -0.43,-8.57 -0.63,-12.87c-0.07,-1.3 -0.1,-2.61 -0.11,-3.92c-0.03,-3.17 -0.08,-6.35 -0.05,-9.52c0.03,-2.43 0.16,-4.85 0.24,-7.28c0.03,-0.87 0.1,-1.74 0.11,-2.61c0.17,-10.64 0.3,-21.29 0.49,-31.93c0.07,-3.67 0.26,-7.34 0.41,-11.01c0.02,-0.62 0.12,-1.24 0.25,-1.84c0.1,-0.46 0.75,-0.57 1.04,-0.2c0.18,0.25 0.37,0.52 0.45,0.81c0.15,0.6 0.28,1.21 0.34,1.83c0.07,0.74 0.1,1.49 0.09,2.23c-0.06,6.35 -0.13,12.7 -0.21,19.05c-0.06,5.98 -0.12,11.95 -0.21,17.93c-0.04,2.3 -0.17,4.6 -0.26,6.9c-0.05,1.31 -0.13,2.61 -0.13,3.92c0,4.36 -0.03,8.72 0.06,13.07c0.07,3.55 0.33,7.09 0.46,10.64c0.15,4.48 0.45,8.95 0.84,13.41c0.02,0.31 0.04,0.62 0.05,0.93c0.21,4.6 0.49,9.2 0.6,13.81c0.14,6.09 0.19,12.2 0.19,18.29c0.01,6.54 -0.01,13.08 -0.13,19.61c-0.11,6.1 -0.33,12.2 -0.56,18.3c-0.19,4.91 -0.47,9.82 -0.74,14.73c-0.24,4.35 -0.5,8.7 -0.78,13.04c-0.1,1.56 -0.31,3.1 -0.4,4.65c-0.15,2.3 -0.3,4.6 -0.35,6.9c-0.15,8.15 -0.25,16.31 -0.38,24.46c-0.12,7.16 -0.24,14.31 -0.4,21.47c-0.02,1.24 -0.2,2.48 -0.36,3.71c-0.11,0.83 -0.55,1.28 -1.12,1.27c-0.64,-0.01 -1.09,-0.57 -1.08,-1.49c0.04,-2.61 0.11,-5.23 0.18,-7.84c0.05,-2.3 0.13,-4.6 0.17,-6.9c0.03,-1.56 -0.03,-3.12 0,-4.67c0.15,-9.4 0.31,-18.8 0.47,-28.2c0.08,-4.3 0.45,-8.57 0.85,-12.85c0.3,-3.1 0.37,-6.21 0.54,-9.32c0.29,-5.47 0.52,-10.94 0.87,-16.41c0.66,-10.37 0.63,-20.77 0.84,-30.07z" id="svg_4" fill="white" />
   <path d="m119.83,280.46c-9.4,0.14 -19.24,0.16 -29.06,0.47c-5.79,0.17 -11.57,0.35 -17.36,0.45c-5.04,0.07 -10.07,0.35 -15.11,0.49c-2.61,0.07 -5.23,0.06 -7.84,0.08c-2.06,0.01 -4.11,-0.06 -6.16,0.03c-5.17,0.24 -10.33,0.15 -15.5,0.12c-1.12,-0.01 -2.24,-0.03 -3.35,-0.13c-0.61,-0.06 -1.22,-0.25 -1.79,-0.48c-0.48,-0.19 -0.67,-0.74 -0.57,-1.26c0.1,-0.5 0.5,-0.81 1.09,-0.82c0.12,-0.01 0.24,0 0.37,0.02c4.47,0.49 8.96,0.39 13.43,0.2c5.79,-0.24 11.57,-0.15 17.35,-0.23c5.91,-0.07 11.82,-0.32 17.73,-0.49c1.93,-0.05 3.86,-0.08 5.79,-0.15c2.98,-0.11 5.97,-0.25 8.95,-0.37c2.12,-0.08 4.23,-0.17 6.35,-0.19c7.53,-0.09 15.06,-0.19 22.59,-0.22c3.42,-0.01 6.84,0.16 10.26,0.2c2.99,0.03 5.97,0 8.96,-0.01c2.05,0 4.1,-0.05 6.16,-0.02c2.8,0.04 5.6,0.11 8.4,0.22c1.74,0.06 3.47,0.21 5.21,0.33c0.45,0.03 0.87,0.16 1.01,0.67c0.1,0.39 -0.29,0.94 -0.87,1.05c-0.97,0.18 -1.96,0.36 -2.95,0.38c-2.05,0.04 -4.11,0.04 -6.16,-0.07c-4.17,-0.22 -8.33,-0.19 -12.5,-0.01c-2.61,0.12 -5.23,0.05 -7.84,0.01c-2.05,-0.04 -4.1,-0.16 -6.59,-0.27z" id="svg_5" fill="white" />
   <path d="m89.53,6.65c6.53,0 13.07,-0.05 19.6,0.01c8.09,0.07 16.19,0.14 24.27,0.37c6.04,0.18 12.07,0.45 18.11,0.28c0.81,-0.02 1.62,0.04 2.42,0.08c0.25,0.01 0.52,0.02 0.73,0.13c0.19,0.11 0.4,0.33 0.43,0.53c0.04,0.21 -0.07,0.56 -0.23,0.65c-0.42,0.24 -0.89,0.46 -1.36,0.52c-1.11,0.16 -2.23,0.29 -3.35,0.3c-4.16,0.01 -8.33,-0.03 -12.5,-0.07c-1.31,-0.01 -2.62,-0.12 -3.92,-0.14c-11.83,-0.17 -23.65,-0.46 -35.48,-0.37c-7.9,0.06 -15.8,-0.2 -23.71,-0.26c-7.53,-0.07 -15.06,-0.11 -22.59,-0.07c-8.9,0.05 -17.8,0.21 -26.69,0.31c-0.5,0.01 -1,0 -1.49,-0.06c-0.44,-0.04 -0.83,-0.48 -0.85,-0.87c-0.02,-0.38 0.3,-0.86 0.74,-0.96c0.67,-0.14 1.35,-0.27 2.02,-0.28c7.84,-0.18 15.69,-0.23 23.52,-0.52c7.6,-0.29 15.19,0.05 22.78,0.05c2.74,0 5.47,0.14 8.21,0.17c3.11,0.03 6.22,0.01 9.34,0.01c0,0.06 0,0.12 0,0.19z" id="svg_6" fill="white" />
  </g>
 </g>
</svg>